<?xml version="1.0" standalone="no"?>
<!DOCTYPE svg PUBLIC "-//W3C//DTD SVG 20010904//EN"
 "http://www.w3.org/TR/2001/REC-SVG-20010904/DTD/svg10.dtd">
<svg version="1.0" xmlns="http://www.w3.org/2000/svg"
 width="360.000000pt" height="360.000000pt" viewBox="0 0 360.000000 360.000000"
 preserveAspectRatio="xMidYMid meet">

<g transform="translate(0.000000,360.000000) scale(0.100000,-0.100000)"
fill="#000000" stroke="none">
<path d="M885 3048 c-11 -6 -22 -12 -24 -14 -2 -2 6 -15 17 -31 10 -15 81
-136 157 -268 76 -132 225 -388 330 -570 106 -181 280 -483 387 -670 108 -187
227 -394 265 -460 39 -66 95 -164 126 -218 32 -54 57 -103 57 -110 -1 -7 -64
-46 -141 -87 l-139 -75 204 -3 c113 -1 300 -1 416 0 l211 3 -37 60 c-20 33
-46 78 -59 100 -68 119 -248 429 -325 560 -48 83 -186 321 -305 529 -119 209
-247 431 -284 495 -70 118 -168 288 -204 351 -11 19 -46 81 -78 137 -33 56
-59 108 -59 115 0 8 24 26 53 40 28 14 93 49 142 77 l90 51 -390 0 c-268 -1
-396 -4 -410 -12z"/>
<path d="M1921 3056 c5 -4 94 -53 207 -113 45 -25 80 -48 78 -51 -25 -45 -252
-440 -292 -509 -30 -50 -54 -94 -54 -99 0 -12 212 -374 220 -374 4 0 45 66 92
148 142 245 459 794 486 841 13 24 37 64 53 89 16 25 29 52 29 59 0 10 -80 13
-412 13 -226 0 -409 -2 -407 -4z"/>
<path d="M1494 1658 c-9 -18 -132 -231 -272 -473 -140 -242 -265 -458 -278
-480 -12 -22 -38 -67 -58 -100 l-37 -60 211 -3 c116 -1 303 -1 415 0 l203 3
-129 70 c-71 39 -136 75 -144 80 -12 8 17 64 160 310 96 165 175 304 175 309
0 15 -212 376 -221 376 -5 0 -16 -15 -25 -32z"/>
</g>
</svg>
